<svg xmlns="http://www.w3.org/2000/svg" width="1200" height="720" viewBox="0 0 1200 720" role="img" aria-labelledby="title desc">
  <title id="title">Advisory Board Illustration</title>
  <desc id="desc">People seated around a table discussing project plans</desc>
  <rect width="1200" height="720" fill="#eef2ff"/>
  <rect x="0" y="470" width="1200" height="250" fill="#dde6ff"/>

  <ellipse cx="600" cy="430" rx="330" ry="115" fill="#ffffff" stroke="#c7d4ff" stroke-width="6"/>
  <ellipse cx="600" cy="430" rx="195" ry="70" fill="#f8faff" stroke="#d8e1ff" stroke-width="4"/>

  <g fill="#4a67c8">
    <circle cx="390" cy="270" r="40"/>
    <circle cx="515" cy="220" r="40"/>
    <circle cx="685" cy="220" r="40"/>
    <circle cx="810" cy="270" r="40"/>
    <circle cx="470" cy="340" r="30"/>
    <circle cx="730" cy="340" r="30"/>
  </g>

  <g fill="#2e448f">
    <path d="M330 370c20-55 55-85 95-85s75 30 95 85v45H330z"/>
    <path d="M455 320c18-48 45-74 60-74s42 26 60 74v34H455z"/>
    <path d="M625 320c18-48 45-74 60-74s42 26 60 74v34H625z"/>
    <path d="M750 370c20-55 55-85 95-85s75 30 95 85v45H750z"/>
    <path d="M425 388c14-38 31-58 45-58s31 20 45 58v28H425z"/>
    <path d="M685 388c14-38 31-58 45-58s31 20 45 58v28H685z"/>
  </g>

  <g fill="#ffffff" stroke="#b8c9ff" stroke-width="4">
    <rect x="535" y="388" width="130" height="84" rx="10"/>
    <line x1="555" y1="414" x2="645" y2="414"/>
    <line x1="555" y1="432" x2="645" y2="432"/>
    <line x1="555" y1="450" x2="615" y2="450"/>
  </g>

  <g fill="#5873d1">
    <circle cx="450" cy="130" r="18"/>
    <circle cx="760" cy="130" r="18"/>
    <circle cx="600" cy="110" r="22"/>
  </g>
</svg>
